<svg viewBox="0 0 64 64" fill="#3c3836" stroke="#ebdbb2" stroke-width="1.5%" xmlns="http://www.w3.org/2000/svg"><path d="m4.223 37.28.945-3.792c.486-1.952 1.519-3.528 3.099-4.728 1.579-1.2 3.409-1.8 5.489-1.8 1.312 0 2.344.224 3.096.672.752.448 1.329.992 1.729 1.632.4.64.743 1.288 1.028 1.944.284.656.596 1.2.937 1.632.34.432.846.648 1.518.648 1.216 0 1.995-.688 2.339-2.064l.873-3.504h5.088l-.945 3.792c-.487 1.952-1.512 3.528-3.075 4.728-1.564 1.2-3.401 1.8-5.513 1.8-1.312 0-2.344-.224-3.096-.672-.752-.448-1.329-.992-1.729-1.632a14.544 14.544 0 0 1-1.027-1.944c-.285-.656-.598-1.2-.938-1.632-.34-.432-.846-.648-1.518-.648-1.216 0-1.996.688-2.339 2.064l-.873 3.504H4.223Zm34.48 18.96 1.58-6.336c-3.072-.256-5.297-1.248-6.674-2.976-1.378-1.728-1.731-4-1.061-6.816h6c-.295 1.184-.172 2.168.368 2.952.54.784 1.435 1.304 2.683 1.56l2.538-10.176-.805-.24c-2.576-.704-4.381-1.968-5.414-3.792-1.034-1.824-1.227-4.032-.581-6.624.678-2.72 2.083-4.952 4.214-6.696 2.13-1.744 4.684-2.744 7.66-3l1.58-6.336h2.976l-1.568 6.288c2.912.256 5.01 1.24 6.296 2.952 1.285 1.712 1.604 3.928.958 6.648h-6c.59-2.368-.271-3.792-2.583-4.272l-2.417 9.696 1.476.432c2.608.704 4.423 1.96 5.445 3.768 1.021 1.808 1.2 4.04.538 6.696-.694 2.784-2.187 5.08-4.477 6.888-2.291 1.808-5.02 2.84-8.188 3.096l-1.568 6.288h-2.976Zm4.718-32.784c-.28 1.12-.227 2.096.158 2.928.384.832 1.089 1.44 2.113 1.824l2.202-8.832c-2.416.448-3.907 1.808-4.473 4.08Zm1.142 21.216c1.36-.192 2.505-.68 3.437-1.464.932-.784 1.549-1.784 1.852-3 .295-1.184.182-2.208-.338-3.072-.521-.864-1.401-1.44-2.641-1.728l-2.31 9.264Z"/></svg>
