<?xml version="1.0" encoding="UTF-8"?>
<svg viewBox="0 0 64 64" width="64" height="64" fill="#3c3836" xmlns="http://www.w3.org/2000/svg">
  <path d="M 4.223 37.28 L 5.168 33.488 C 5.654 31.536 6.687 29.96 8.267 28.76 C 9.846 27.56 11.676 26.96 13.756 26.96 C 15.068 26.96 16.1 27.184 16.852 27.632 C 17.604 28.08 18.181 28.624 18.581 29.264 C 18.981 29.904 19.324 30.552 19.609 31.208 C 19.893 31.864 20.205 32.408 20.546 32.84 C 20.886 33.272 21.392 33.488 22.064 33.488 C 23.28 33.488 24.059 32.8 24.403 31.424 L 25.276 27.92 L 30.364 27.92 L 29.419 31.712 C 28.932 33.664 27.907 35.24 26.344 36.44 C 24.78 37.64 22.943 38.24 20.831 38.24 C 19.519 38.24 18.487 38.016 17.735 37.568 C 16.983 37.12 16.406 36.576 16.006 35.936 C 15.605 35.296 15.263 34.648 14.979 33.992 C 14.694 33.336 14.381 32.792 14.041 32.36 C 13.701 31.928 13.195 31.712 12.523 31.712 C 11.307 31.712 10.527 32.4 10.184 33.776 L 9.311 37.28 L 4.223 37.28 Z"/>
  <path d="M 38.703 56.24 L 40.283 49.904 C 37.211 49.648 34.986 48.656 33.609 46.928 C 32.231 45.2 31.878 42.928 32.548 40.112 L 38.548 40.112 C 38.253 41.296 38.376 42.28 38.916 43.064 C 39.456 43.848 40.351 44.368 41.599 44.624 L 44.137 34.448 L 43.332 34.208 C 40.756 33.504 38.951 32.24 37.918 30.416 C 36.884 28.592 36.691 26.384 37.337 23.792 C 38.015 21.072 39.42 18.84 41.551 17.096 C 43.681 15.352 46.235 14.352 49.211 14.096 L 50.791 7.76 L 53.767 7.76 L 52.199 14.048 C 55.111 14.304 57.209 15.288 58.495 17 C 59.78 18.712 60.099 20.928 59.453 23.648 L 53.453 23.648 C 54.043 21.28 53.182 19.856 50.87 19.376 L 48.453 29.072 L 49.929 29.504 C 52.537 30.208 54.352 31.464 55.374 33.272 C 56.395 35.08 56.574 37.312 55.912 39.968 C 55.218 42.752 53.725 45.048 51.435 46.856 C 49.144 48.664 46.415 49.696 43.247 49.952 L 41.679 56.24 L 38.703 56.24 Z M 43.421 23.456 C 43.141 24.576 43.194 25.552 43.579 26.384 C 43.963 27.216 44.668 27.824 45.692 28.208 L 47.894 19.376 C 45.478 19.824 43.987 21.184 43.421 23.456 Z M 44.563 44.672 C 45.923 44.48 47.068 43.992 48 43.208 C 48.932 42.424 49.549 41.424 49.852 40.208 C 50.147 39.024 50.034 38 49.514 37.136 C 48.993 36.272 48.113 35.696 46.873 35.408 L 44.563 44.672 Z"/>
</svg>
