<?xml version="1.0" encoding="utf-8"?>
<svg viewBox="1 0 1500 600" width="1500" height="600" xmlns="http://www.w3.org/2000/svg">
  <rect x="1" width="1500" height="600" style="fill: rgb(249, 245, 215);"/>
  <path d="M 219.268 311.52 L 221.789 301.408 C 223.087 296.203 225.842 292 230.053 288.8 C 234.264 285.6 239.143 284 244.69 284 C 248.189 284 250.941 284.597 252.947 285.792 C 254.953 286.987 256.49 288.437 257.558 290.144 C 258.625 291.851 259.538 293.579 260.297 295.328 C 261.056 297.077 261.889 298.528 262.796 299.68 C 263.703 300.832 265.053 301.408 266.845 301.408 C 270.088 301.408 272.167 299.573 273.082 295.904 L 275.411 286.56 L 288.979 286.56 L 286.458 296.672 C 285.16 301.877 282.427 306.08 278.259 309.28 C 274.09 312.48 269.19 314.08 263.558 314.08 C 260.059 314.08 257.307 313.483 255.301 312.288 C 253.294 311.093 251.757 309.643 250.69 307.936 C 249.622 306.229 248.709 304.501 247.95 302.752 C 247.191 301.003 246.358 299.552 245.451 298.4 C 244.544 297.248 243.194 296.672 241.402 296.672 C 238.159 296.672 236.081 298.507 235.166 302.176 L 232.836 311.52 L 219.268 311.52 Z" style="white-space: pre; fill: rgb(60, 56, 54);"/>
  <path d="M 311.23 362.08 L 315.442 345.184 C 307.25 344.501 301.318 341.856 297.645 337.248 C 293.972 332.64 293.03 326.581 294.817 319.072 L 310.817 319.072 C 310.03 322.229 310.357 324.853 311.798 326.944 C 313.239 329.035 315.624 330.421 318.953 331.104 L 325.719 303.968 L 323.574 303.328 C 316.703 301.451 311.89 298.08 309.135 293.216 C 306.38 288.352 305.865 282.464 307.588 275.552 C 309.396 268.299 313.141 262.347 318.824 257.696 C 324.506 253.045 331.315 250.379 339.25 249.696 L 343.463 232.8 L 351.399 232.8 L 347.218 249.568 C 354.984 250.251 360.58 252.875 364.007 257.44 C 367.434 262.005 368.286 267.915 366.563 275.168 L 350.563 275.168 C 352.138 268.853 349.842 265.056 343.676 263.776 L 337.229 289.632 L 341.166 290.784 C 348.122 292.661 352.962 296.011 355.685 300.832 C 358.408 305.653 358.886 311.605 357.121 318.688 C 355.27 326.112 351.29 332.235 345.181 337.056 C 339.072 341.877 331.794 344.629 323.346 345.312 L 319.166 362.08 L 311.23 362.08 Z M 323.811 274.656 C 323.066 277.643 323.207 280.245 324.232 282.464 C 325.257 284.683 327.136 286.304 329.867 287.328 L 335.74 263.776 C 329.298 264.971 325.322 268.597 323.811 274.656 Z M 326.857 331.232 C 330.483 330.72 333.538 329.419 336.022 327.328 C 338.506 325.237 340.152 322.571 340.961 319.328 C 341.748 316.171 341.448 313.44 340.059 311.136 C 338.671 308.832 336.323 307.296 333.016 306.528 L 326.857 331.232 Z" style="white-space: pre; fill: rgb(60, 56, 54);"/>
  <path d="M 472.951 345.44 C 469.367 345.44 466.758 344.352 465.125 342.176 C 463.491 340 463.11 337.163 463.983 333.664 C 464.855 330.165 466.656 327.307 469.385 325.088 C 472.114 322.869 475.271 321.76 478.855 321.76 C 482.439 321.76 485.042 322.869 486.665 325.088 C 488.288 327.307 488.663 330.165 487.791 333.664 C 486.918 337.163 485.123 340 482.405 342.176 C 479.686 344.352 476.535 345.44 472.951 345.44 Z" style="white-space: pre; fill: rgb(60, 56, 54);"/>
  <path d="M 515.841 358.24 L 590.641 237.92 L 607.281 237.92 L 532.481 358.24 L 515.841 358.24 Z" style="white-space: pre; fill: rgb(60, 56, 54);"/>
  <path d="M 626.683 345.44 C 620.71 345.44 615.792 344.288 611.929 341.984 C 608.066 339.68 605.445 336.416 604.066 332.192 C 602.687 327.968 602.711 322.997 604.136 317.28 L 608.285 300.64 C 609.71 294.923 612.166 289.952 615.651 285.728 C 619.136 281.504 623.384 278.24 628.396 275.936 C 633.408 273.632 638.901 272.48 644.874 272.48 C 650.762 272.48 655.616 273.632 659.436 275.936 C 663.256 278.24 665.866 281.461 667.267 285.6 C 668.667 289.739 668.675 294.581 667.292 300.128 L 664.101 312.928 L 620.581 312.928 L 619.368 317.792 C 618.177 322.571 618.515 326.176 620.384 328.608 C 622.252 331.04 625.447 332.256 629.97 332.256 C 633.298 332.256 636.279 331.68 638.913 330.528 C 641.547 329.376 643.354 327.691 644.333 325.472 L 660.205 325.472 C 657.586 331.531 653.221 336.373 647.111 340 C 641.002 343.627 634.192 345.44 626.683 345.44 Z M 623.772 300.128 L 623.166 302.56 L 651.358 302.432 L 651.964 300 C 653.177 295.136 652.918 291.381 651.189 288.736 C 649.459 286.091 646.333 284.768 641.81 284.768 C 637.117 284.768 633.24 286.112 630.181 288.8 C 627.122 291.488 624.985 295.264 623.772 300.128 Z" style="white-space: pre; fill: rgb(60, 56, 54);"/>
  <path d="M 715.058 344.16 C 708.061 344.16 702.971 342.069 699.789 337.888 C 696.608 333.707 695.868 328.203 697.57 321.376 L 711.581 265.184 L 688.413 265.184 L 692.019 250.72 L 731.187 250.72 L 713.666 320.992 C 713.007 323.637 713.227 325.749 714.326 327.328 C 715.426 328.907 717.256 329.696 719.816 329.696 L 740.424 329.696 L 736.818 344.16 L 715.058 344.16 Z" style="white-space: pre; fill: rgb(60, 56, 54);"/>
  <path d="M 751.796 344.16 L 755.402 329.696 L 779.466 329.696 L 789.806 288.224 L 768.302 288.224 L 771.908 273.76 L 809.412 273.76 L 795.466 329.696 L 817.098 329.696 L 813.492 344.16 L 751.796 344.16 Z M 803.261 261.984 C 800.018 261.984 797.666 261.152 796.203 259.488 C 794.74 257.824 794.36 255.584 795.062 252.768 C 795.764 249.952 797.261 247.712 799.554 246.048 C 801.846 244.384 804.613 243.552 807.856 243.552 C 811.099 243.552 813.451 244.384 814.914 246.048 C 816.376 247.712 816.756 249.952 816.054 252.768 C 815.352 255.584 813.855 257.824 811.563 259.488 C 809.271 261.152 806.504 261.984 803.261 261.984 Z" style="white-space: pre; fill: rgb(60, 56, 54);"/>
  <path d="M 823.493 367.2 L 827.1 352.736 L 845.66 352.736 C 849.756 352.736 853.302 351.52 856.297 349.088 C 859.293 346.656 861.312 343.349 862.355 339.168 L 875.056 288.224 L 842.544 288.224 L 846.151 273.76 L 894.663 273.76 L 878.259 339.552 C 876.131 348.085 871.89 354.827 865.536 359.776 C 859.182 364.725 851.653 367.2 842.949 367.2 L 823.493 367.2 Z M 888.767 261.984 C 885.524 261.984 883.172 261.152 881.709 259.488 C 880.246 257.824 879.866 255.584 880.568 252.768 C 881.271 249.952 882.768 247.712 885.06 246.048 C 887.352 244.384 890.119 243.552 893.362 243.552 C 896.605 243.552 898.957 244.384 900.42 246.048 C 901.883 247.712 902.263 249.952 901.56 252.768 C 900.858 255.584 899.361 257.824 897.069 259.488 C 894.777 261.152 892.01 261.984 888.767 261.984 Z" style="white-space: pre; fill: rgb(60, 56, 54);"/>
  <path d="M 925.945 345.44 C 918.777 345.44 913.629 343.413 910.501 339.36 C 907.373 335.307 906.628 329.995 908.266 323.424 C 909.968 316.597 913.671 311.157 919.375 307.104 C 925.079 303.051 932.027 301.024 940.219 301.024 L 957.371 301.024 L 958.616 296.032 C 960.381 288.949 957.125 285.408 948.848 285.408 C 945.093 285.408 941.926 286.133 939.346 287.584 C 936.765 289.035 935.017 291.083 934.102 293.728 L 918.742 293.728 C 920.658 287.413 924.601 282.293 930.572 278.368 C 936.543 274.443 943.752 272.48 952.2 272.48 C 961.16 272.48 967.593 274.571 971.5 278.752 C 975.407 282.933 976.413 288.821 974.52 296.416 L 962.616 344.16 L 947 344.16 L 950.287 330.976 C 948.562 335.499 945.546 339.04 941.238 341.6 C 936.931 344.16 931.833 345.44 925.945 345.44 Z M 934.32 332.384 C 939.013 332.384 943.013 331.232 946.318 328.928 C 949.623 326.624 951.754 323.552 952.712 319.712 L 954.786 311.392 L 938.402 311.392 C 934.903 311.392 931.885 312.373 929.348 314.336 C 926.811 316.299 925.159 318.816 924.393 321.888 C 923.606 325.045 924.061 327.584 925.758 329.504 C 927.455 331.424 930.309 332.384 934.32 332.384 Z" style="white-space: pre; fill: rgb(60, 56, 54);"/>
  <path d="M 982.33 344.16 L 1005.627 250.72 L 1021.627 250.72 L 1015.883 273.76 L 1012.243 286.816 C 1014.203 282.379 1017.166 278.88 1021.132 276.32 C 1025.099 273.76 1029.642 272.48 1034.762 272.48 C 1041.674 272.48 1046.625 274.784 1049.614 279.392 C 1052.604 284 1053.131 290.187 1051.195 297.952 L 1039.674 344.16 L 1023.674 344.16 L 1034.716 299.872 C 1035.801 295.52 1035.506 292.171 1033.829 289.824 C 1032.153 287.477 1029.395 286.304 1025.555 286.304 C 1021.544 286.304 1018.111 287.499 1015.254 289.888 C 1012.397 292.277 1010.415 295.691 1009.308 300.128 L 998.33 344.16 L 982.33 344.16 Z" style="white-space: pre; fill: rgb(60, 56, 54);"/>
  <path d="M 1087.347 345.44 C 1083.763 345.44 1081.154 344.352 1079.52 342.176 C 1077.887 340 1077.506 337.163 1078.379 333.664 C 1079.251 330.165 1081.052 327.307 1083.781 325.088 C 1086.51 322.869 1089.667 321.76 1093.251 321.76 C 1096.835 321.76 1099.438 322.869 1101.061 325.088 C 1102.684 327.307 1103.059 330.165 1102.187 333.664 C 1101.314 337.163 1099.519 340 1096.8 342.176 C 1094.082 344.352 1090.931 345.44 1087.347 345.44 Z" style="white-space: pre; fill: rgb(60, 56, 54);"/>
  <path d="M 1161.237 345.312 C 1152.874 345.312 1146.734 343.413 1142.817 339.616 C 1138.9 335.819 1137.749 330.677 1139.366 324.192 L 1155.11 324.192 C 1154.429 326.923 1154.911 329.013 1156.555 330.464 C 1158.198 331.915 1160.812 332.64 1164.396 332.64 L 1170.028 332.64 C 1173.868 332.64 1177.014 331.915 1179.467 330.464 C 1181.919 329.013 1183.485 326.923 1184.166 324.192 C 1184.805 321.632 1184.553 319.733 1183.411 318.496 C 1182.268 317.259 1180.257 316.427 1177.377 316 L 1160.415 313.696 C 1154.974 312.928 1151.186 310.752 1149.051 307.168 C 1146.915 303.584 1146.56 298.933 1147.986 293.216 C 1149.645 286.56 1153.135 281.461 1158.455 277.92 C 1163.776 274.379 1170.617 272.608 1178.98 272.608 L 1184.868 272.608 C 1192.719 272.608 1198.586 274.4 1202.471 277.984 C 1206.356 281.568 1207.64 286.347 1206.321 292.32 L 1190.449 292.32 C 1190.917 290.101 1190.377 288.331 1188.829 287.008 C 1187.282 285.685 1184.929 285.024 1181.772 285.024 L 1175.884 285.024 C 1172.471 285.024 1169.692 285.728 1167.549 287.136 C 1165.406 288.544 1164.037 290.443 1163.441 292.832 C 1162.909 294.965 1163.177 296.544 1164.244 297.568 C 1165.311 298.592 1167.093 299.232 1169.59 299.488 L 1185.527 301.792 C 1191.821 302.56 1196.137 304.843 1198.476 308.64 C 1200.815 312.437 1201.186 317.536 1199.59 323.936 C 1197.888 330.763 1194.249 336.032 1188.673 339.744 C 1183.097 343.456 1175.829 345.312 1166.869 345.312 L 1161.237 345.312 Z" style="white-space: pre; fill: rgb(60, 56, 54);"/>
  <path d="M 1212.726 344.16 L 1236.023 250.72 L 1252.023 250.72 L 1246.279 273.76 L 1242.639 286.816 C 1244.599 282.379 1247.562 278.88 1251.528 276.32 C 1255.495 273.76 1260.038 272.48 1265.158 272.48 C 1272.07 272.48 1277.021 274.784 1280.01 279.392 C 1283 284 1283.527 290.187 1281.591 297.952 L 1270.07 344.16 L 1254.07 344.16 L 1265.112 299.872 C 1266.197 295.52 1265.902 292.171 1264.225 289.824 C 1262.549 287.477 1259.791 286.304 1255.951 286.304 C 1251.94 286.304 1248.506 287.499 1245.649 289.888 C 1242.792 292.277 1240.811 295.691 1239.704 300.128 L 1228.726 344.16 L 1212.726 344.16 Z" style="white-space: pre; fill: rgb(60, 56, 54);"/>
</svg>